<?xml version="1.0" encoding="utf-8"?>
<!-- Generator: Adobe Illustrator 16.0.0, SVG Export Plug-In . SVG Version: 6.00 Build 0)  -->
<!DOCTYPE svg PUBLIC "-//W3C//DTD SVG 1.1//EN" "http://www.w3.org/Graphics/SVG/1.1/DTD/svg11.dtd">
<svg version="1.1" id="Capa_1" xmlns="http://www.w3.org/2000/svg" xmlns:xlink="http://www.w3.org/1999/xlink" x="0px" y="0px"
	 width="300px" height="46px" viewBox="0 0 300 46" enable-background="new 0 0 300 46" xml:space="preserve">
<g>
	<g>
		<polygon fill="#1D1F3D" points="73.293,22.854 63.195,5.381 60.202,5.381 60.651,6.168 60.651,34.126 63.262,34.126 
			63.262,10.689 73.293,28.022 83.308,10.693 83.308,34.126 85.918,34.126 85.918,6.168 86.369,5.381 83.375,5.381 		"/>
		<polygon fill="#1D1F3D" points="98.536,27.534 93.23,16.077 90.293,16.077 97.173,30.466 92.335,40.619 95.025,40.619 
			98.009,34.394 98.009,34.421 106.761,16.077 103.842,16.077 		"/>
		<polygon fill="#1D1F3D" points="137.805,22.854 127.707,5.381 124.713,5.381 125.162,6.168 125.162,34.126 127.773,34.126 
			127.773,10.689 137.806,28.022 147.819,10.693 147.819,34.126 150.431,34.126 150.431,6.168 150.881,5.381 147.886,5.381 		"/>
		<rect x="156.757" y="16.077" fill="#1D1F3D" width="2.611" height="18.049"/>
		<path fill="#3D4988" d="M158.063,10.053c-0.567,0-1.061,0.203-1.467,0.601c-0.41,0.401-0.617,0.895-0.617,1.466
			c0,0.583,0.207,1.083,0.617,1.483c0.405,0.4,0.899,0.603,1.467,0.603s1.062-0.202,1.468-0.603c0.408-0.4,0.617-0.9,0.617-1.483
			c0-0.571-0.209-1.063-0.617-1.466C159.124,10.256,158.63,10.053,158.063,10.053"/>
		<path fill="#1D1F3D" d="M168.463,17.996c-0.077,0.076-0.152,0.154-0.226,0.233v-2.152h-2.612v18.049h2.612V24.84
			c0.053-1.932,0.756-3.541,2.146-4.921c0.949-0.95,1.857-1.452,2.699-1.491l0.503-0.024v-2.75l-0.553,0.026
			C171.464,15.754,169.926,16.535,168.463,17.996"/>
		<path fill="#1D1F3D" d="M194.555,17.569c-0.029-0.031-0.059-0.062-0.088-0.092c-1.952-1.951-4.342-2.941-7.105-2.941
			c-2.752,0-5.136,0.99-7.088,2.941c-1.95,1.951-2.94,4.342-2.94,7.106c0,2.751,0.99,5.137,2.94,7.087
			c1.951,1.952,4.336,2.942,7.088,2.942c2.764,0,5.154-0.99,7.111-2.949c0.027-0.029,0.056-0.056,0.082-0.083v2.546h2.611V16.077
			h-2.611V17.569z M187.361,31.896c-2.044,0-3.739-0.7-5.184-2.14c-1.445-1.44-2.147-3.132-2.147-5.174
			c0-2.043,0.702-3.74,2.147-5.184c1.445-1.445,3.141-2.147,5.184-2.147s3.738,0.702,5.185,2.147
			c1.06,1.061,1.735,2.302,2.009,3.693v2.98c-0.273,1.381-0.949,2.617-2.009,3.677C191.101,31.194,189.405,31.896,187.361,31.896"/>
		<path fill="#1D1F3D" d="M212.068,17.252c2.043,0,3.739,0.697,5.173,2.119c0.188,0.199,0.366,0.4,0.532,0.599l0.238,0.287
			l2.653-0.979l-0.421-0.564c-0.314-0.424-0.675-0.84-1.071-1.236c-1.951-1.951-4.343-2.941-7.104-2.941
			c-2.752,0-5.137,0.99-7.088,2.941c-1.952,1.951-2.941,4.336-2.941,7.089c0,2.761,0.989,5.153,2.941,7.104
			c1.95,1.952,4.336,2.942,7.088,2.942c2.762,0,5.154-0.99,7.104-2.942c0.397-0.396,0.76-0.822,1.076-1.258l0.409-0.567
			l-2.649-0.949l-0.235,0.282c-0.163,0.195-0.338,0.388-0.521,0.571c-1.445,1.445-3.143,2.147-5.184,2.147
			c-2.031,0-3.722-0.702-5.166-2.147c-1.445-1.445-2.148-3.141-2.148-5.183c0-2.044,0.703-3.737,2.147-5.175
			C208.347,17.952,210.037,17.252,212.068,17.252"/>
		<rect x="225.222" y="5.381" fill="#1D1F3D" width="2.61" height="28.745"/>
		<path fill="#1D1F3D" d="M248.44,29.178c-0.162,0.195-0.338,0.388-0.521,0.571c-1.445,1.445-3.142,2.147-5.185,2.147
			c-1.712,0-3.173-0.496-4.451-1.512l12.202-12.202l-0.33-0.372c-0.099-0.111-0.203-0.223-0.314-0.334
			c-0.287-0.285-0.578-0.553-0.875-0.8c-1.771-1.421-3.869-2.141-6.231-2.141c-2.751,0-5.136,0.99-7.088,2.941
			c-1.951,1.951-2.939,4.336-2.939,7.089c0,2.761,0.988,5.153,2.939,7.104c1.951,1.952,4.336,2.942,7.088,2.942
			c2.764,0,5.154-0.99,7.106-2.942c0.398-0.396,0.76-0.822,1.075-1.258l0.41-0.567l-2.65-0.949L248.44,29.178z M242.734,17.252
			c1.448,0,2.755,0.369,3.894,1.1l-10.105,10.106c-0.731-1.139-1.103-2.444-1.103-3.892c0-2.044,0.703-3.737,2.148-5.175
			C239.013,17.952,240.702,17.252,242.734,17.252"/>
		<path fill="#3D4988" d="M255.845,30.218c-0.568,0-1.062,0.2-1.468,0.601c-0.409,0.403-0.617,0.896-0.617,1.467
			c0,0.584,0.208,1.082,0.617,1.482c0.406,0.398,0.899,0.601,1.468,0.601c0.566,0,1.061-0.202,1.467-0.601
			c0.409-0.4,0.616-0.9,0.616-1.482c0-0.571-0.207-1.063-0.616-1.467C256.905,30.418,256.411,30.218,255.845,30.218"/>
		<path fill="#3D4988" d="M277.67,29.178c-0.161,0.195-0.338,0.388-0.521,0.571c-1.445,1.445-3.141,2.147-5.185,2.147
			c-1.71,0-3.172-0.496-4.45-1.512l12.201-12.202l-0.329-0.372c-0.1-0.111-0.204-0.223-0.315-0.334
			c-0.286-0.285-0.577-0.553-0.875-0.8c-1.771-1.421-3.868-2.141-6.231-2.141c-2.752,0-5.136,0.99-7.088,2.941
			c-1.951,1.951-2.939,4.336-2.939,7.089c0,2.761,0.988,5.153,2.939,7.104c1.952,1.952,4.336,2.942,7.088,2.942
			c2.765,0,5.154-0.99,7.106-2.942c0.398-0.396,0.761-0.822,1.075-1.258l0.41-0.567l-2.65-0.949L277.67,29.178z M271.964,17.252
			c1.448,0,2.755,0.369,3.894,1.1l-10.105,10.106c-0.73-1.139-1.102-2.444-1.102-3.892c0-2.044,0.702-3.737,2.146-5.175
			C268.242,17.952,269.933,17.252,271.964,17.252"/>
		<path fill="#3D4988" d="M297.39,16.077v10.98c0,1.308-0.46,2.392-1.407,3.32c-0.951,0.93-2.045,1.38-3.345,1.38
			c-1.403,0-2.545-0.452-3.494-1.391c-0.951-0.922-1.414-2.004-1.414-3.31v-10.98h-2.611v11.127
			c0.038,2.049,0.742,3.773,2.093,5.125c1.354,1.354,3.187,2.039,5.443,2.039c2.132,0,3.9-0.686,5.254-2.039
			c1.352-1.352,2.056-3.076,2.092-5.133v-11.12H297.39z"/>
	</g>
	<g>
		<polygon fill="#3D4988" points="41.872,41.943 24.64,24.712 24.677,24.673 33,32.981 33,16.351 35.91,13.44 35.91,35.887 
			38.949,38.919 38.949,10.402 38.99,10.36 41.86,7.49 		"/>
		<path fill="#1D1F3D" d="M24.64,24.712l0.038-0.039l-0.019-0.019L33,16.312v0.039l2.911-2.91v-0.039l3.039-3.039v0.039l0.042-0.042
			l2.87-2.87l-0.001-4.153L35.91,9.287V0.789L18.346,18.354L0,0.042l0.03,4.226L0.262,36.46l2.911-2.913L3.219,7.458V7.376
			l2.793,2.789v0.086L6.21,38.913l2.997-2.914L9.133,13.371l32.739,32.587v-4.015L24.64,24.712z M33,12.197l-10.4,10.402
			l-0.007-0.006l-2.187-2.184L33,7.814V12.197z"/>
	</g>
</g>
</svg>
